<?xml version="1.0" encoding="UTF-8" standalone="no"?>
<!DOCTYPE svg PUBLIC "-//W3C//DTD SVG 1.1//EN" "http://www.w3.org/Graphics/SVG/1.1/DTD/svg11.dtd">
<svg xmlns="http://www.w3.org/2000/svg" version="1.1" viewBox="0 0 165 256" width="165.0pt" height="256.0pt">
<path d="M 0.00 0.00 L 4.85 0.00 C 4.88 2.32 4.91 4.64 4.93 6.95 C 10.41 8.51 15.88 9.81 21.48 10.87 C 21.59 7.25 21.67 3.62 21.74 0.00 L 41.03 0.00 C 42.68 4.76 43.35 9.68 43.64 14.69 C 40.42 12.99 37.16 11.37 33.82 9.90 C 35.27 13.63 36.93 17.13 38.90 20.61 C 37.26 19.71 35.62 18.82 33.97 17.93 C 34.62 19.76 35.27 21.58 35.93 23.40 C 35.52 23.74 35.12 24.07 34.71 24.41 L 35.29 25.05 C 38.25 29.60 41.25 34.11 43.80 38.92 C 41.17 37.95 38.54 36.98 35.93 35.94 C 38.21 37.74 40.15 39.70 41.99 41.94 C 43.88 44.19 46.75 45.25 48.71 47.22 C 49.44 49.01 49.04 51.37 48.82 53.24 C 48.07 55.72 47.68 58.25 47.36 60.81 C 46.90 64.82 45.56 68.47 44.72 72.42 C 48.70 71.28 49.03 68.26 51.18 65.31 C 52.79 66.05 55.25 66.98 55.24 69.09 C 55.60 73.58 55.51 78.51 55.12 82.99 C 54.85 85.64 53.37 87.88 50.45 87.65 C 47.11 87.66 45.72 84.32 44.55 81.75 C 44.19 80.68 43.83 79.62 43.49 78.54 C 42.45 78.93 41.41 79.32 40.38 79.71 C 42.75 75.77 42.93 72.15 42.49 67.69 C 39.99 68.53 36.60 69.18 35.04 71.49 C 33.57 73.64 32.64 76.21 31.88 78.69 C 30.43 83.45 32.54 88.03 31.04 92.98 C 29.54 97.73 26.63 101.99 24.76 106.63 C 30.54 103.72 30.75 98.27 34.86 93.87 C 36.29 92.25 37.83 90.82 39.31 89.26 C 34.71 96.34 32.32 104.18 30.27 112.29 C 29.45 114.29 31.67 115.64 32.68 117.15 C 36.30 115.64 39.99 114.55 43.82 113.69 C 43.73 114.67 43.65 115.65 43.57 116.64 C 40.60 117.72 37.60 118.71 34.60 119.70 C 32.15 120.52 30.85 121.62 29.34 123.65 C 27.29 126.49 24.65 128.68 22.24 131.18 C 20.74 132.66 20.77 134.84 20.42 136.79 C 22.59 135.91 24.77 135.04 26.96 134.20 C 26.29 136.54 25.69 138.90 25.24 141.29 C 24.54 145.36 22.85 148.93 22.98 153.16 C 23.06 157.73 21.62 161.43 18.98 165.10 C 18.76 160.92 17.46 156.06 19.19 152.17 C 20.23 149.27 21.38 146.64 21.07 143.47 C 20.73 141.30 18.54 139.59 18.00 137.52 C 18.10 134.90 19.06 132.26 19.70 129.72 C 15.86 129.27 12.01 129.02 8.16 128.81 C 9.94 131.28 12.49 133.42 11.83 136.78 C 11.69 138.31 11.01 138.98 9.78 139.77 C 6.90 141.51 3.22 142.23 0.00 143.12 L 0.00 121.48 C 1.74 120.57 3.52 119.76 5.31 118.94 C 4.97 120.43 4.64 121.91 4.31 123.40 C 8.67 122.15 10.30 121.04 12.84 117.31 C 12.53 118.86 12.24 120.42 11.95 121.98 C 12.98 122.51 14.00 123.05 15.03 123.59 C 17.01 119.74 19.05 116.43 18.64 111.91 C 18.55 108.96 16.26 106.46 14.57 104.18 C 16.58 102.65 18.84 101.25 20.10 98.98 C 21.48 96.58 22.33 93.77 23.24 91.16 C 23.81 92.04 24.38 92.91 24.96 93.78 C 27.77 87.36 25.16 80.67 27.72 74.43 C 30.86 69.38 36.61 65.54 41.87 62.95 C 39.04 63.32 35.86 63.33 33.20 64.41 C 30.04 66.28 27.43 69.07 24.47 71.25 C 24.39 70.21 24.32 69.17 24.25 68.12 C 18.53 71.89 13.02 75.14 5.92 75.10 C 6.68 73.09 7.29 70.47 8.99 69.05 C 12.40 66.08 17.08 64.35 20.42 61.30 C 21.72 60.23 21.62 58.75 21.82 57.24 L 20.30 56.65 C 18.83 56.08 17.37 55.48 15.91 54.89 C 17.78 54.15 19.63 53.36 21.49 52.58 C 21.64 51.79 21.79 51.00 21.95 50.21 C 19.99 50.39 18.00 50.56 16.05 50.84 C 15.49 49.31 14.92 47.79 14.36 46.28 C 16.44 45.53 18.52 44.78 20.61 44.06 C 19.48 42.93 18.08 41.82 17.28 40.42 C 16.41 38.31 16.31 35.81 16.03 33.56 C 14.74 34.32 13.45 35.08 12.16 35.84 C 12.04 32.52 11.72 29.47 12.60 26.23 C 13.26 23.78 13.85 21.50 13.27 18.96 C 10.35 19.57 6.59 20.20 4.46 22.46 C 3.07 23.72 3.37 25.67 3.32 27.37 C 3.56 33.17 4.13 39.11 3.71 44.92 C 3.63 46.71 2.32 47.92 1.35 49.34 C 0.87 43.61 0.92 37.90 0.00 32.21 L 0.00 0.00 Z" fill="#231920" />
<path d="M 4.85 0.00 L 21.74 0.00 C 21.67 3.62 21.59 7.25 21.48 10.87 C 15.88 9.81 10.41 8.51 4.93 6.95 C 4.91 4.64 4.88 2.32 4.85 0.00 Z" fill="#100b0e" />
<path d="M 41.03 0.00 L 57.66 0.00 C 57.44 4.32 57.58 8.68 57.60 13.01 C 59.20 13.23 60.79 13.45 62.38 13.68 C 63.63 9.16 63.63 4.64 63.63 0.00 L 69.94 0.00 C 69.37 3.07 69.06 6.16 68.81 9.26 C 68.68 10.75 68.61 12.24 68.59 13.73 L 70.40 14.35 C 71.60 14.67 72.81 14.95 74.02 15.20 C 77.73 15.65 81.46 15.55 85.15 16.21 C 87.50 16.55 89.85 16.54 92.22 16.42 C 91.70 14.84 91.16 13.26 90.69 11.67 C 90.55 9.05 90.60 6.43 90.29 3.81 C 89.28 5.79 88.38 7.83 87.53 9.88 L 85.46 10.30 C 85.57 6.74 86.49 3.36 87.59 0.00 L 95.82 0.00 C 94.28 5.74 92.05 10.70 93.03 16.78 C 95.71 16.63 99.01 17.26 101.05 15.13 C 103.47 13.02 104.18 10.14 105.21 7.24 C 103.25 6.04 101.32 4.88 99.49 3.50 C 99.07 2.34 98.67 1.17 98.30 0.00 L 105.19 0.00 C 104.58 0.92 104.56 1.78 105.15 2.57 C 106.89 3.65 107.78 1.30 106.89 0.00 L 122.19 0.00 C 122.97 2.06 123.94 4.47 123.82 6.70 C 123.08 9.55 120.37 11.78 119.38 14.57 C 118.53 17.03 118.32 19.63 116.85 21.81 C 115.43 23.98 113.78 26.01 112.24 28.11 C 117.09 25.57 121.64 22.66 126.76 20.66 C 121.63 29.12 113.20 31.99 106.69 38.67 C 104.17 41.29 103.87 43.89 104.17 47.34 C 104.20 50.98 104.21 54.73 103.54 58.31 C 103.25 60.26 101.56 60.55 100.12 61.58 C 99.81 58.73 99.95 55.83 99.53 53.00 C 99.28 50.62 96.94 48.81 95.17 47.41 C 91.65 47.98 86.52 48.21 83.88 50.91 C 81.18 54.24 79.41 58.11 76.19 61.07 L 75.79 58.85 C 76.54 55.21 77.92 50.87 77.17 47.17 C 76.55 46.35 75.88 45.57 75.13 44.84 C 72.99 50.01 71.50 55.56 70.17 61.00 C 69.66 60.93 69.15 60.86 68.65 60.79 C 68.00 62.10 67.34 63.41 66.69 64.72 C 62.92 60.16 61.77 54.35 58.02 49.74 C 56.15 50.51 54.06 51.17 52.41 52.36 C 50.77 53.84 49.61 55.96 48.40 57.79 C 53.10 61.30 56.38 65.58 61.52 68.34 C 61.43 71.33 61.29 74.30 61.41 77.30 C 62.90 80.29 60.63 81.63 59.35 84.21 C 56.98 87.67 58.10 91.46 56.07 95.11 C 50.58 105.52 49.28 117.88 43.91 128.17 C 42.29 131.60 39.98 134.20 38.85 137.87 C 38.14 139.76 37.89 141.52 36.39 142.97 C 33.50 145.83 31.55 149.22 28.03 151.46 C 28.54 148.14 28.37 144.48 29.45 141.29 C 30.66 139.29 32.67 137.68 34.36 136.07 C 32.86 133.11 31.39 129.52 31.45 126.14 C 31.80 123.86 33.50 121.69 34.60 119.70 C 37.60 118.71 40.60 117.72 43.57 116.64 C 43.65 115.65 43.73 114.67 43.82 113.69 C 39.99 114.55 36.30 115.64 32.68 117.15 C 31.67 115.64 29.45 114.29 30.27 112.29 C 32.32 104.18 34.71 96.34 39.31 89.26 C 41.17 86.83 42.90 84.32 44.55 81.75 C 45.72 84.32 47.11 87.66 50.45 87.65 C 53.37 87.88 54.85 85.64 55.12 82.99 C 55.51 78.51 55.60 73.58 55.24 69.09 C 55.25 66.98 52.79 66.05 51.18 65.31 C 49.03 68.26 48.70 71.28 44.72 72.42 C 45.56 68.47 46.90 64.82 47.36 60.81 C 47.68 58.25 48.07 55.72 48.82 53.24 C 51.35 49.98 51.84 46.28 55.25 43.73 C 53.27 42.44 51.18 41.19 49.61 39.41 C 46.91 36.33 44.94 32.12 41.81 29.18 C 39.92 27.41 37.52 26.31 35.29 25.05 L 34.71 24.41 C 35.12 24.07 35.52 23.74 35.93 23.40 C 35.27 21.58 34.62 19.76 33.97 17.93 C 35.62 18.82 37.26 19.71 38.90 20.61 C 36.93 17.13 35.27 13.63 33.82 9.90 C 37.16 11.37 40.42 12.99 43.64 14.69 C 43.35 9.68 42.68 4.76 41.03 0.00 Z" fill="#544636" />
<path d="M 57.66 0.00 L 63.63 0.00 C 63.63 4.64 63.63 9.16 62.38 13.68 C 60.79 13.45 59.20 13.23 57.60 13.01 C 57.58 8.68 57.44 4.32 57.66 0.00 Z" fill="#f4f6f5" />
<path d="M 69.94 0.00 L 74.38 0.00 C 72.69 3.20 70.81 6.24 68.81 9.26 C 69.06 6.16 69.37 3.07 69.94 0.00 Z" fill="#a28b71" />
<path d="M 74.38 0.00 L 87.59 0.00 C 86.49 3.36 85.57 6.74 85.46 10.30 C 85.34 12.27 85.26 14.24 85.15 16.21 C 81.46 15.55 77.73 15.65 74.02 15.20 C 73.52 13.61 72.92 12.05 72.34 10.49 C 71.68 11.77 71.03 13.06 70.40 14.35 L 68.59 13.73 C 68.61 12.24 68.68 10.75 68.81 9.26 C 70.81 6.24 72.69 3.20 74.38 0.00 Z" fill="#f4f6f5" />
<path d="M 95.82 0.00 L 98.30 0.00 C 98.67 1.17 99.07 2.34 99.49 3.50 C 101.32 4.88 103.25 6.04 105.21 7.24 C 104.18 10.14 103.47 13.02 101.05 15.13 C 99.01 17.26 95.71 16.63 93.03 16.78 C 92.05 10.70 94.28 5.74 95.82 0.00 Z" fill="#a28b71" />
<path d="M 105.19 0.00 L 106.89 0.00 C 107.78 1.30 106.89 3.65 105.15 2.57 C 104.56 1.78 104.58 0.92 105.19 0.00 Z" fill="#a28b71" />
<path d="M 122.19 0.00 L 165.00 0.00 L 165.00 18.28 C 164.48 19.75 163.73 21.23 163.46 22.78 C 163.94 23.90 164.45 25.01 165.00 26.10 L 165.00 54.86 C 163.74 56.97 162.35 58.95 160.96 60.96 C 159.92 60.32 158.89 59.69 157.87 59.02 C 153.39 55.71 148.32 53.19 143.48 50.43 C 143.91 48.71 144.52 46.87 144.50 45.08 C 144.17 43.33 143.25 41.62 142.48 40.02 C 144.03 36.21 146.86 32.83 149.09 29.35 C 150.27 27.65 151.49 25.97 152.62 24.25 C 153.52 22.40 155.00 20.45 153.64 18.43 C 151.81 15.26 146.69 14.74 143.51 13.51 C 141.24 12.90 138.79 11.06 136.53 10.96 C 133.90 12.36 132.93 16.76 131.87 19.42 C 132.95 19.92 134.03 20.42 135.10 20.92 C 132.74 21.53 130.38 22.12 128.01 22.71 C 130.06 22.83 132.10 22.96 134.15 23.05 C 132.75 23.73 131.38 24.47 130.01 25.21 C 130.67 26.06 131.33 26.90 132.00 27.75 C 135.41 27.02 138.83 26.40 142.29 25.95 C 138.11 31.56 132.83 34.91 127.51 39.63 C 128.57 39.90 129.64 40.18 130.71 40.46 C 132.15 42.50 133.72 44.29 135.54 46.00 C 134.32 46.28 133.11 46.56 131.90 46.84 C 134.20 47.96 136.49 48.82 138.96 49.49 C 141.46 50.81 143.83 52.34 146.31 53.70 C 142.69 53.21 139.05 52.83 135.40 52.61 C 139.71 56.21 144.93 58.19 149.29 61.68 C 151.36 63.29 153.22 65.13 154.98 67.06 C 153.08 68.14 151.09 69.34 149.51 70.86 C 149.43 73.02 150.66 75.31 151.41 77.31 C 149.69 75.56 147.91 73.85 146.13 72.16 C 145.74 73.08 145.36 74.01 144.97 74.94 C 143.75 72.01 142.58 68.80 140.63 66.28 C 138.02 64.33 134.06 63.93 130.97 62.99 C 124.06 60.99 117.72 60.30 111.68 56.43 C 112.97 55.78 114.26 55.13 115.56 54.49 C 114.04 53.48 112.52 52.45 111.01 51.41 C 111.49 50.63 111.96 49.84 112.43 49.05 C 109.66 48.57 106.92 47.95 104.17 47.34 C 103.87 43.89 104.17 41.29 106.69 38.67 C 113.20 31.99 121.63 29.12 126.76 20.66 C 121.64 22.66 117.09 25.57 112.24 28.11 C 113.78 26.01 115.43 23.98 116.85 21.81 C 118.32 19.63 118.53 17.03 119.38 14.57 C 120.37 11.78 123.08 9.55 123.82 6.70 C 123.94 4.47 122.97 2.06 122.19 0.00 Z" fill="#231920" />
<path d="M 90.29 3.81 C 90.60 6.43 90.55 9.05 90.69 11.67 C 89.73 12.43 88.76 13.19 87.80 13.96 C 87.69 12.60 87.60 11.24 87.53 9.88 C 88.38 7.83 89.28 5.79 90.29 3.81 Z" fill="#f4f6f5" />
<path d="M 66.21 5.01 C 67.51 7.86 69.13 13.69 64.70 14.57 C 64.32 10.87 64.47 8.36 66.21 5.01 Z" fill="#a28b71" />
<path d="M 49.24 8.17 C 50.62 8.56 51.95 9.25 53.24 9.86 C 51.04 9.93 48.85 9.90 46.65 9.79 C 47.48 9.18 48.34 8.64 49.24 8.17 Z" fill="#a28b71" />
<path d="M 100.28 8.39 C 100.27 9.75 100.26 11.11 100.25 12.47 C 99.24 12.35 98.24 12.21 97.24 12.06 C 96.42 11.28 95.62 10.48 94.82 9.68 C 96.63 9.20 98.44 8.76 100.28 8.39 Z" fill="#f4f6f5" />
<path d="M 85.46 10.30 L 87.53 9.88 C 87.60 11.24 87.69 12.60 87.80 13.96 C 88.76 13.19 89.73 12.43 90.69 11.67 C 91.16 13.26 91.70 14.84 92.22 16.42 C 89.85 16.54 87.50 16.55 85.15 16.21 C 85.26 14.24 85.34 12.27 85.46 10.30 Z" fill="#a28b71" />
<path d="M 143.51 13.51 C 146.69 14.74 151.81 15.26 153.64 18.43 C 155.00 20.45 153.52 22.40 152.62 24.25 C 146.49 23.24 140.34 23.10 134.15 23.05 C 132.10 22.96 130.06 22.83 128.01 22.71 C 130.38 22.12 132.74 21.53 135.10 20.92 C 134.03 20.42 132.95 19.92 131.87 19.42 C 132.93 16.76 133.90 12.36 136.53 10.96 C 138.79 11.06 141.24 12.90 143.51 13.51 Z" fill="#100b0e" />
<path d="M 72.34 10.49 C 72.92 12.05 73.52 13.61 74.02 15.20 C 72.81 14.95 71.60 14.67 70.40 14.35 C 71.03 13.06 71.68 11.77 72.34 10.49 Z" fill="#a28b71" />
<path d="M 13.27 18.96 C 13.85 21.50 13.26 23.78 12.60 26.23 C 11.72 29.47 12.04 32.52 12.16 35.84 C 13.45 35.08 14.74 34.32 16.03 33.56 C 16.31 35.81 16.41 38.31 17.28 40.42 C 18.08 41.82 19.48 42.93 20.61 44.06 C 18.52 44.78 16.44 45.53 14.36 46.28 C 14.92 47.79 15.49 49.31 16.05 50.84 C 12.67 52.83 9.79 55.31 6.86 57.90 C 9.91 57.00 12.94 56.04 15.91 54.89 C 17.37 55.48 18.83 56.08 20.30 56.65 C 17.04 58.49 13.86 60.59 11.08 63.10 C 6.09 67.32 5.64 73.93 0.00 77.69 L 0.00 32.21 C 0.92 37.90 0.87 43.61 1.35 49.34 C 2.32 47.92 3.63 46.71 3.71 44.92 C 4.13 39.11 3.56 33.17 3.32 27.37 C 3.37 25.67 3.07 23.72 4.46 22.46 C 6.59 20.20 10.35 19.57 13.27 18.96 Z" fill="#100b0e" />
<path d="M 165.00 18.28 L 165.00 26.10 C 164.45 25.01 163.94 23.90 163.46 22.78 C 163.73 21.23 164.48 19.75 165.00 18.28 Z" fill="#544636" />
<path d="M 134.15 23.05 C 140.34 23.10 146.49 23.24 152.62 24.25 C 151.49 25.97 150.27 27.65 149.09 29.35 C 148.21 29.37 147.33 29.40 146.46 29.42 C 146.33 28.60 146.20 27.78 146.06 26.95 C 143.06 28.75 139.98 30.40 137.94 33.35 C 136.20 35.91 135.04 38.96 133.76 41.77 C 134.33 42.57 134.89 43.37 135.46 44.16 C 137.93 42.98 140.28 41.65 142.48 40.02 C 143.25 41.62 144.17 43.33 144.50 45.08 C 144.52 46.87 143.91 48.71 143.48 50.43 C 141.99 50.05 140.47 49.78 138.96 49.49 C 136.49 48.82 134.20 47.96 131.90 46.84 C 133.11 46.56 134.32 46.28 135.54 46.00 C 133.72 44.29 132.15 42.50 130.71 40.46 C 129.64 40.18 128.57 39.90 127.51 39.63 C 132.83 34.91 138.11 31.56 142.29 25.95 C 138.83 26.40 135.41 27.02 132.00 27.75 C 131.33 26.90 130.67 26.06 130.01 25.21 C 131.38 24.47 132.75 23.73 134.15 23.05 Z" fill="#412e21" />
<path d="M 35.29 25.05 C 37.52 26.31 39.92 27.41 41.81 29.18 C 44.94 32.12 46.91 36.33 49.61 39.41 C 51.18 41.19 53.27 42.44 55.25 43.73 C 51.84 46.28 51.35 49.98 48.82 53.24 C 49.04 51.37 49.44 49.01 48.71 47.22 C 46.75 45.25 43.88 44.19 41.99 41.94 C 40.15 39.70 38.21 37.74 35.93 35.94 C 38.54 36.98 41.17 37.95 43.80 38.92 C 41.25 34.11 38.25 29.60 35.29 25.05 Z" fill="#412e21" />
<path d="M 60.64 29.07 C 61.27 30.98 61.10 33.20 61.23 35.19 C 68.78 34.61 76.47 33.81 84.04 34.13 C 87.35 34.23 91.10 35.14 94.30 34.29 C 96.40 33.77 98.48 33.17 100.61 32.73 C 99.51 34.29 98.79 36.77 96.66 37.06 C 84.95 39.68 74.00 38.30 62.32 36.90 C 59.65 35.67 57.47 33.16 55.01 31.50 C 52.98 30.14 51.86 28.34 50.80 26.19 C 54.91 24.99 57.89 25.74 60.64 29.07 Z" fill="#846549" />
<path d="M 146.06 26.95 C 146.20 27.78 146.33 28.60 146.46 29.42 C 147.33 29.40 148.21 29.37 149.09 29.35 C 146.86 32.83 144.03 36.21 142.48 40.02 C 140.28 41.65 137.93 42.98 135.46 44.16 C 134.89 43.37 134.33 42.57 133.76 41.77 C 135.04 38.96 136.20 35.91 137.94 33.35 C 139.98 30.40 143.06 28.75 146.06 26.95 Z" fill="#544636" />
<path d="M 154.03 36.31 C 155.60 38.22 156.80 40.35 157.91 42.56 C 159.94 41.24 162.01 39.98 164.11 38.78 C 163.25 43.54 161.62 48.03 159.83 52.50 C 155.72 50.98 147.85 50.58 145.83 46.04 C 146.62 41.21 150.04 38.59 154.03 36.31 Z" fill="#544636" />
<path d="M 75.13 44.84 C 75.88 45.57 76.55 46.35 77.17 47.17 C 77.92 50.87 76.54 55.21 75.79 58.85 C 73.94 62.56 71.64 65.90 68.89 69.00 C 69.21 66.32 69.59 63.64 70.17 61.00 C 71.50 55.56 72.99 50.01 75.13 44.84 Z" fill="#846549" />
<path d="M 95.17 47.41 C 96.94 48.81 99.28 50.62 99.53 53.00 C 99.95 55.83 99.81 58.73 100.12 61.58 C 100.51 67.57 105.35 71.35 105.84 77.45 C 105.00 77.50 104.16 77.55 103.32 77.59 C 101.31 75.96 99.23 74.46 96.92 73.30 C 94.67 70.67 94.16 67.91 93.88 64.57 C 88.87 64.82 83.92 66.52 79.46 68.72 C 78.39 70.63 78.75 73.41 78.64 75.56 C 78.12 75.18 77.59 74.81 77.07 74.43 C 78.03 80.24 78.31 87.08 81.29 92.20 C 82.08 93.70 82.99 95.21 83.56 96.80 C 82.71 98.07 81.47 99.16 80.36 100.20 C 81.79 99.89 83.23 99.58 84.67 99.28 C 84.47 96.44 84.15 93.63 83.68 90.81 C 87.95 90.12 92.28 89.95 96.55 89.29 C 98.81 89.21 99.21 86.73 100.08 85.10 C 100.71 83.55 101.23 81.94 101.75 80.35 C 103.13 81.32 104.54 82.39 106.06 83.11 C 109.01 84.16 112.55 83.52 115.47 84.64 C 117.67 87.13 119.07 90.44 120.57 93.38 C 122.47 98.50 124.13 103.26 128.47 106.88 C 128.99 109.91 130.37 112.44 132.14 114.91 C 132.13 116.80 132.96 119.33 130.74 120.26 C 126.19 119.18 122.18 115.89 117.75 114.28 C 114.86 113.10 111.82 112.83 108.72 112.87 C 108.34 114.44 108.01 116.02 107.67 117.60 C 113.32 120.52 119.34 122.28 125.27 124.48 C 125.52 126.52 125.77 128.56 126.05 130.60 C 126.93 131.15 127.82 131.69 128.71 132.25 C 130.62 134.02 132.49 136.83 135.07 137.53 C 137.43 138.24 139.62 139.09 141.77 140.33 C 141.73 138.67 141.74 137.02 141.76 135.36 C 146.37 137.00 150.01 139.03 152.07 143.70 C 150.80 143.47 149.52 143.24 148.24 143.00 C 147.74 143.67 147.24 144.34 146.74 145.00 C 149.76 148.86 152.87 152.54 155.20 156.87 C 149.72 153.79 147.16 148.46 142.27 144.71 C 139.15 142.04 136.03 140.49 132.04 139.52 C 132.78 141.61 133.59 143.68 134.53 145.70 C 131.71 143.29 129.87 140.27 127.71 137.34 C 124.98 133.83 121.26 132.96 117.22 131.76 C 118.32 135.41 119.09 139.04 119.26 142.86 C 117.04 142.00 114.83 141.11 112.62 140.22 C 113.44 145.79 113.95 150.94 117.26 155.72 C 122.03 162.16 124.84 169.62 129.80 175.95 C 129.75 174.61 129.69 173.28 129.64 171.94 C 134.72 179.36 138.62 188.39 139.02 197.46 C 138.13 197.46 137.24 197.46 136.36 197.46 C 137.19 198.21 138.02 198.97 138.85 199.74 C 137.41 200.04 135.98 200.34 134.54 200.64 C 135.03 203.46 134.98 204.56 133.49 207.05 C 131.52 205.10 129.59 203.13 127.63 201.19 C 123.76 206.37 125.56 211.26 126.62 217.00 C 125.46 214.47 124.19 212.03 122.78 209.63 C 122.63 213.98 122.26 218.01 125.68 221.29 C 128.66 222.32 132.20 221.86 135.09 223.07 C 138.33 224.80 141.18 228.32 144.68 229.50 C 148.00 230.52 152.07 229.82 155.53 229.75 C 158.80 229.65 161.82 230.32 165.00 230.98 L 165.00 239.91 C 158.61 243.24 151.37 244.64 144.20 244.25 C 140.30 244.21 134.47 242.73 131.16 245.18 C 128.40 247.63 127.92 252.64 126.66 256.00 L 111.22 256.00 C 114.16 254.47 117.76 253.01 120.04 250.54 C 120.16 248.03 119.40 245.18 119.89 242.71 C 120.98 238.94 124.24 235.75 125.30 231.97 C 125.24 229.40 122.64 226.95 120.04 227.11 C 116.61 227.10 113.20 227.82 109.78 227.99 C 106.49 228.15 103.40 228.61 100.25 229.55 C 100.22 228.66 100.19 227.78 100.16 226.90 C 99.18 228.73 98.20 230.56 97.20 232.39 C 92.77 229.46 92.35 225.16 90.85 220.50 C 88.52 224.31 86.40 228.23 83.98 231.98 C 85.52 226.59 88.15 221.77 90.20 216.60 C 91.13 214.55 91.23 211.10 93.52 210.12 C 94.15 209.74 94.80 209.37 95.45 209.01 C 93.72 206.52 92.39 204.45 89.27 203.74 C 86.59 198.02 85.59 191.32 85.79 185.05 C 86.08 182.10 87.19 181.37 89.73 180.53 C 89.89 179.77 90.05 179.01 90.20 178.25 C 91.68 179.34 93.15 180.45 94.62 181.55 C 94.47 176.59 93.98 171.66 93.40 166.74 C 94.41 168.96 95.41 171.18 96.40 173.41 C 96.98 173.31 97.56 173.21 98.14 173.10 C 98.55 172.02 98.97 170.93 99.38 169.85 C 101.25 171.38 103.16 172.87 105.12 174.31 C 105.37 171.59 105.53 168.88 105.58 166.15 C 108.16 173.35 113.08 178.42 117.75 184.26 C 119.31 179.95 118.47 176.03 117.89 171.65 C 118.13 170.41 118.74 169.28 118.07 168.08 C 115.88 163.44 112.39 159.89 108.36 156.80 C 108.56 159.20 108.77 161.60 108.95 164.01 C 106.13 158.78 104.00 153.25 101.22 148.00 C 101.14 150.02 101.06 152.03 100.96 154.05 C 99.04 151.06 97.56 147.88 96.34 144.54 C 98.65 144.21 100.96 143.87 103.28 143.57 C 99.69 142.98 96.61 142.08 93.29 140.61 C 90.06 138.95 86.40 140.36 83.01 140.86 C 84.61 139.39 86.19 137.92 87.77 136.44 C 86.43 136.47 85.08 136.51 83.74 136.54 C 85.11 135.01 86.48 133.48 87.85 131.95 C 86.08 132.83 84.31 133.73 82.56 134.64 C 82.72 132.02 82.85 129.54 82.01 127.00 C 80.12 121.02 75.43 116.97 73.53 110.96 C 72.45 107.46 69.55 104.87 68.60 101.42 C 68.07 96.69 68.69 91.97 67.72 87.25 C 64.57 92.28 63.89 97.10 63.99 102.96 C 63.39 102.05 62.79 101.15 62.20 100.25 C 61.33 104.36 60.64 108.87 58.89 112.71 C 57.73 115.24 55.88 117.02 54.35 119.23 C 52.70 121.91 52.15 125.32 50.48 128.02 C 48.99 130.24 46.51 131.82 45.03 134.06 C 44.21 135.42 43.63 136.99 43.04 138.47 C 47.71 138.60 52.41 138.46 57.07 138.82 C 63.14 138.64 68.90 145.19 68.64 151.10 C 68.17 149.99 67.67 148.90 67.14 147.84 C 64.56 145.20 61.76 142.98 58.09 142.12 C 54.11 141.14 50.63 142.06 46.71 142.69 C 45.47 142.69 44.28 142.68 43.06 142.92 C 41.64 143.63 40.77 145.50 40.01 146.83 C 38.95 149.27 37.70 152.18 37.90 154.88 C 38.74 158.52 41.60 161.93 43.83 164.87 C 41.65 168.70 39.81 172.75 37.46 176.47 C 35.60 179.38 33.05 181.29 30.35 183.34 C 31.39 179.00 32.82 174.79 34.31 170.58 C 31.55 173.80 29.06 177.20 26.91 180.86 C 27.13 179.74 27.32 178.62 27.50 177.49 C 25.45 176.54 23.46 175.47 21.46 174.40 C 23.78 170.32 23.48 166.40 23.80 161.94 C 25.10 158.27 27.80 155.62 28.03 151.46 C 31.55 149.22 33.50 145.83 36.39 142.97 C 37.89 141.52 38.14 139.76 38.85 137.87 C 39.98 134.20 42.29 131.60 43.91 128.17 C 49.28 117.88 50.58 105.52 56.07 95.11 C 58.10 91.46 56.98 87.67 59.35 84.21 C 60.63 81.63 62.90 80.29 61.41 77.30 C 61.29 74.30 61.43 71.33 61.52 68.34 C 56.38 65.58 53.10 61.30 48.40 57.79 C 49.61 55.96 50.77 53.84 52.41 52.36 C 54.06 51.17 56.15 50.51 58.02 49.74 C 61.77 54.35 62.92 60.16 66.69 64.72 C 67.34 63.41 68.00 62.10 68.65 60.79 C 69.15 60.86 69.66 60.93 70.17 61.00 C 69.59 63.64 69.21 66.32 68.89 69.00 C 71.64 65.90 73.94 62.56 75.79 58.85 L 76.19 61.07 C 79.41 58.11 81.18 54.24 83.88 50.91 C 86.52 48.21 91.65 47.98 95.17 47.41 Z" fill="#846549" />
<path d="M 104.17 47.34 C 106.92 47.95 109.66 48.57 112.43 49.05 C 111.96 49.84 111.49 50.63 111.01 51.41 C 112.52 52.45 114.04 53.48 115.56 54.49 C 114.26 55.13 112.97 55.78 111.68 56.43 C 117.72 60.30 124.06 60.99 130.97 62.99 C 134.06 63.93 138.02 64.33 140.63 66.28 C 142.58 68.80 143.75 72.01 144.97 74.94 C 145.84 77.33 146.19 79.79 146.29 82.33 C 143.68 79.59 141.29 76.65 138.70 73.89 C 137.35 74.13 136.02 74.43 134.69 74.74 C 132.30 72.01 129.69 69.80 126.08 68.95 C 122.71 67.99 119.35 66.99 115.96 66.10 C 115.46 67.08 114.57 68.28 114.65 69.42 C 115.07 73.76 119.10 77.31 119.19 81.55 C 119.40 85.53 119.78 89.47 120.57 93.38 C 119.07 90.44 117.67 87.13 115.47 84.64 C 112.55 83.52 109.01 84.16 106.06 83.11 C 104.54 82.39 103.13 81.32 101.75 80.35 C 101.23 81.94 100.71 83.55 100.08 85.10 C 98.05 86.83 95.73 88.74 92.99 89.06 C 89.35 89.46 85.34 88.38 81.81 87.55 C 82.73 83.41 85.47 80.19 86.72 76.26 C 85.93 74.92 84.92 73.67 83.96 72.44 C 87.33 71.10 89.89 68.76 92.36 66.16 C 92.52 67.92 92.36 70.07 93.17 71.66 C 94.38 72.28 95.66 72.78 96.92 73.30 C 99.23 74.46 101.31 75.96 103.32 77.59 C 104.16 77.55 105.00 77.50 105.84 77.45 C 105.35 71.35 100.51 67.57 100.12 61.58 C 101.56 60.55 103.25 60.26 103.54 58.31 C 104.21 54.73 104.20 50.98 104.17 47.34 Z" fill="#412e21" />
<path d="M 143.48 50.43 C 148.32 53.19 153.39 55.71 157.87 59.02 L 158.20 59.88 L 156.50 59.25 C 153.03 57.54 149.80 55.39 146.31 53.70 C 143.83 52.34 141.46 50.81 138.96 49.49 C 140.47 49.78 141.99 50.05 143.48 50.43 Z" fill="#a28b71" />
<path d="M 21.95 50.21 C 21.79 51.00 21.64 51.79 21.49 52.58 C 19.63 53.36 17.78 54.15 15.91 54.89 C 12.94 56.04 9.91 57.00 6.86 57.90 C 9.79 55.31 12.67 52.83 16.05 50.84 C 18.00 50.56 19.99 50.39 21.95 50.21 Z" fill="#544636" />
<path d="M 135.40 52.61 C 139.05 52.83 142.69 53.21 146.31 53.70 C 149.80 55.39 153.03 57.54 156.50 59.25 C 155.30 60.16 154.13 61.11 152.96 62.06 C 155.79 65.36 158.83 67.81 159.39 72.40 C 158.00 70.56 156.54 68.77 154.98 67.06 C 153.22 65.13 151.36 63.29 149.29 61.68 C 144.93 58.19 139.71 56.21 135.40 52.61 Z" fill="#544636" />
<path d="M 165.00 54.86 L 165.00 64.44 C 163.00 64.89 160.99 65.22 158.97 65.57 C 158.92 63.59 158.97 61.75 158.20 59.88 L 157.87 59.02 C 158.89 59.69 159.92 60.32 160.96 60.96 C 162.35 58.95 163.74 56.97 165.00 54.86 Z" fill="#544636" />
<path d="M 20.30 56.65 L 21.82 57.24 C 21.62 58.75 21.72 60.23 20.42 61.30 C 17.08 64.35 12.40 66.08 8.99 69.05 C 7.29 70.47 6.68 73.09 5.92 75.10 C 13.02 75.14 18.53 71.89 24.25 68.12 C 24.32 69.17 24.39 70.21 24.47 71.25 C 27.43 69.07 30.04 66.28 33.20 64.41 C 35.86 63.33 39.04 63.32 41.87 62.95 C 36.61 65.54 30.86 69.38 27.72 74.43 C 25.16 80.67 27.77 87.36 24.96 93.78 C 24.38 92.91 23.81 92.04 23.24 91.16 C 22.33 93.77 21.48 96.58 20.10 98.98 C 18.84 101.25 16.58 102.65 14.57 104.18 C 16.26 106.46 18.55 108.96 18.64 111.91 C 19.05 116.43 17.01 119.74 15.03 123.59 C 14.00 123.05 12.98 122.51 11.95 121.98 C 12.24 120.42 12.53 118.86 12.84 117.31 C 10.30 121.04 8.67 122.15 4.31 123.40 C 4.64 121.91 4.97 120.43 5.31 118.94 C 3.52 119.76 1.74 120.57 0.00 121.48 L 0.00 77.69 C 5.64 73.93 6.09 67.32 11.08 63.10 C 13.86 60.59 17.04 58.49 20.30 56.65 Z" fill="#412e21" />
<path d="M 156.50 59.25 L 158.20 59.88 C 158.97 61.75 158.92 63.59 158.97 65.57 C 160.99 65.22 163.00 64.89 165.00 64.44 L 165.00 69.64 C 163.77 69.81 162.53 69.98 161.30 70.15 C 161.88 72.86 162.37 75.58 162.67 78.34 C 161.02 76.47 160.02 74.82 159.39 72.40 C 158.83 67.81 155.79 65.36 152.96 62.06 C 154.13 61.11 155.30 60.16 156.50 59.25 Z" fill="#231920" />
<path d="M 93.88 64.57 C 94.16 67.91 94.67 70.67 96.92 73.30 C 95.66 72.78 94.38 72.28 93.17 71.66 C 92.36 70.07 92.52 67.92 92.36 66.16 C 89.89 68.76 87.33 71.10 83.96 72.44 C 84.92 73.67 85.93 74.92 86.72 76.26 C 85.47 80.19 82.73 83.41 81.81 87.55 C 85.34 88.38 89.35 89.46 92.99 89.06 C 95.73 88.74 98.05 86.83 100.08 85.10 C 99.21 86.73 98.81 89.21 96.55 89.29 C 92.28 89.95 87.95 90.12 83.68 90.81 C 84.15 93.63 84.47 96.44 84.67 99.28 C 83.23 99.58 81.79 99.89 80.36 100.20 C 81.47 99.16 82.71 98.07 83.56 96.80 C 82.99 95.21 82.08 93.70 81.29 92.20 C 78.31 87.08 78.03 80.24 77.07 74.43 C 77.59 74.81 78.12 75.18 78.64 75.56 C 78.75 73.41 78.39 70.63 79.46 68.72 C 83.92 66.52 88.87 64.82 93.88 64.57 Z" fill="#544636" />
<path d="M 115.96 66.10 C 119.35 66.99 122.71 67.99 126.08 68.95 C 126.81 70.62 127.59 72.26 128.38 73.90 C 126.78 74.71 125.18 75.53 123.58 76.34 C 127.47 82.37 127.68 89.48 132.00 95.19 C 134.89 99.66 138.79 102.94 143.25 105.77 C 149.24 110.11 156.22 112.49 162.29 116.72 C 158.84 117.68 155.37 118.13 151.81 118.41 C 152.87 120.46 153.97 121.88 155.83 123.29 L 157.18 124.38 C 155.17 123.67 152.85 123.12 151.04 122.00 C 148.81 120.55 147.04 118.37 144.92 116.83 C 142.56 115.31 138.70 115.48 136.56 113.45 C 133.95 111.11 131.43 108.78 128.47 106.88 C 124.13 103.26 122.47 98.50 120.57 93.38 C 119.78 89.47 119.40 85.53 119.19 81.55 C 119.10 77.31 115.07 73.76 114.65 69.42 C 114.57 68.28 115.46 67.08 115.96 66.10 Z" fill="#100b0e" />
<path d="M 154.98 67.06 C 156.54 68.77 158.00 70.56 159.39 72.40 C 160.02 74.82 161.02 76.47 162.67 78.34 C 162.37 75.58 161.88 72.86 161.30 70.15 C 162.53 69.98 163.77 69.81 165.00 69.64 L 165.00 77.38 C 163.24 79.33 161.43 81.24 159.67 83.19 C 157.66 85.43 155.54 87.41 152.88 88.86 C 152.23 88.30 151.58 87.73 150.94 87.17 C 149.31 85.62 147.80 83.98 146.29 82.33 C 146.19 79.79 145.84 77.33 144.97 74.94 C 145.36 74.01 145.74 73.08 146.13 72.16 C 147.91 73.85 149.69 75.56 151.41 77.31 C 150.66 75.31 149.43 73.02 149.51 70.86 C 151.09 69.34 153.08 68.14 154.98 67.06 Z" fill="#100b0e" />
<path d="M 42.49 67.69 C 42.93 72.15 42.75 75.77 40.38 79.71 C 41.41 79.32 42.45 78.93 43.49 78.54 C 43.83 79.62 44.19 80.68 44.55 81.75 C 42.90 84.32 41.17 86.83 39.31 89.26 C 37.83 90.82 36.29 92.25 34.86 93.87 C 30.75 98.27 30.54 103.72 24.76 106.63 C 26.63 101.99 29.54 97.73 31.04 92.98 C 32.54 88.03 30.43 83.45 31.88 78.69 C 32.64 76.21 33.57 73.64 35.04 71.49 C 36.60 69.18 39.99 68.53 42.49 67.69 Z" fill="#100b0e" />
<path d="M 126.08 68.95 C 129.69 69.80 132.30 72.01 134.69 74.74 C 135.17 76.35 135.60 77.98 136.04 79.61 C 134.08 78.41 132.13 77.20 130.20 75.97 C 132.12 82.10 132.44 88.83 132.00 95.19 C 127.68 89.48 127.47 82.37 123.58 76.34 C 125.18 75.53 126.78 74.71 128.38 73.90 C 127.59 72.26 126.81 70.62 126.08 68.95 Z" fill="#231920" />
<path d="M 89.31 74.95 C 92.31 73.61 96.99 73.42 99.72 75.44 C 100.59 79.48 98.40 83.58 95.52 86.28 C 93.74 88.05 90.67 87.82 88.43 87.27 C 86.58 86.84 86.03 85.19 86.00 83.48 C 86.17 80.66 87.18 76.89 89.31 74.95 Z" fill="#100b0e" />
<path d="M 138.70 73.89 C 141.29 76.65 143.68 79.59 146.29 82.33 C 147.80 83.98 149.31 85.62 150.94 87.17 C 148.90 86.56 146.83 86.06 144.74 85.64 C 146.03 88.18 147.38 90.52 149.84 92.10 C 155.12 95.72 160.40 98.69 165.00 103.29 L 165.00 107.96 C 161.94 104.12 158.59 100.58 154.63 97.64 C 155.41 99.48 156.21 101.32 156.99 103.17 C 152.64 101.20 148.42 98.99 143.96 97.27 C 142.67 96.64 140.35 95.95 139.99 94.39 C 138.80 89.79 139.37 84.75 138.16 80.14 C 137.62 78.06 136.00 76.38 134.69 74.74 C 136.02 74.43 137.35 74.13 138.70 73.89 Z" fill="#544636" />
<path d="M 134.69 74.74 C 136.00 76.38 137.62 78.06 138.16 80.14 C 139.37 84.75 138.80 89.79 139.99 94.39 C 140.35 95.95 142.67 96.64 143.96 97.27 C 148.42 98.99 152.64 101.20 156.99 103.17 C 156.21 101.32 155.41 99.48 154.63 97.64 C 158.59 100.58 161.94 104.12 165.00 107.96 L 165.00 111.52 C 160.43 105.69 154.11 103.85 147.22 102.16 C 151.28 109.70 158.55 111.12 165.00 116.60 L 165.00 118.46 C 164.09 117.88 163.19 117.30 162.29 116.72 C 156.22 112.49 149.24 110.11 143.25 105.77 C 138.79 102.94 134.89 99.66 132.00 95.19 C 132.44 88.83 132.12 82.10 130.20 75.97 C 132.13 77.20 134.08 78.41 136.04 79.61 C 135.60 77.98 135.17 76.35 134.69 74.74 Z" fill="#412e21" />
<path d="M 95.08 77.28 L 95.91 77.28 L 96.31 78.00 L 95.90 78.72 L 95.07 78.72 L 94.67 78.00 L 95.08 77.28 Z" fill="#a28b71" />
<path d="M 165.00 77.38 L 165.00 83.01 C 164.08 83.75 163.13 84.46 162.19 85.17 C 161.35 84.50 160.51 83.84 159.67 83.19 C 161.43 81.24 163.24 79.33 165.00 77.38 Z" fill="#846549" />
<path d="M 159.67 83.19 C 160.51 83.84 161.35 84.50 162.19 85.17 C 163.13 84.46 164.08 83.75 165.00 83.01 L 165.00 96.74 C 160.73 94.39 156.51 92.18 152.88 88.86 C 155.54 87.41 157.66 85.43 159.67 83.19 Z" fill="#544636" />
<path d="M 144.74 85.64 C 146.83 86.06 148.90 86.56 150.94 87.17 C 151.58 87.73 152.23 88.30 152.88 88.86 C 156.51 92.18 160.73 94.39 165.00 96.74 L 165.00 103.29 C 160.40 98.69 155.12 95.72 149.84 92.10 C 147.38 90.52 146.03 88.18 144.74 85.64 Z" fill="#846549" />
<path d="M 67.72 87.25 C 68.69 91.97 68.07 96.69 68.60 101.42 C 69.55 104.87 72.45 107.46 73.53 110.96 C 75.43 116.97 80.12 121.02 82.01 127.00 C 82.85 129.54 82.72 132.02 82.56 134.64 C 84.31 133.73 86.08 132.83 87.85 131.95 C 86.48 133.48 85.11 135.01 83.74 136.54 C 85.08 136.51 86.43 136.47 87.77 136.44 C 86.19 137.92 84.61 139.39 83.01 140.86 C 86.40 140.36 90.06 138.95 93.29 140.61 C 96.61 142.08 99.69 142.98 103.28 143.57 C 100.96 143.87 98.65 144.21 96.34 144.54 C 97.56 147.88 99.04 151.06 100.96 154.05 C 101.06 152.03 101.14 150.02 101.22 148.00 C 104.00 153.25 106.13 158.78 108.95 164.01 C 108.77 161.60 108.56 159.20 108.36 156.80 C 112.39 159.89 115.88 163.44 118.07 168.08 C 118.74 169.28 118.13 170.41 117.89 171.65 C 118.47 176.03 119.31 179.95 117.75 184.26 C 113.08 178.42 108.16 173.35 105.58 166.15 C 105.53 168.88 105.37 171.59 105.12 174.31 C 103.16 172.87 101.25 171.38 99.38 169.85 C 98.97 170.93 98.55 172.02 98.14 173.10 C 97.56 173.21 96.98 173.31 96.40 173.41 C 95.41 171.18 94.41 168.96 93.40 166.74 C 93.98 171.66 94.47 176.59 94.62 181.55 C 93.15 180.45 91.68 179.34 90.20 178.25 C 90.05 179.01 89.89 179.77 89.73 180.53 C 87.19 181.37 86.08 182.10 85.79 185.05 C 85.59 191.32 86.59 198.02 89.27 203.74 C 92.39 204.45 93.72 206.52 95.45 209.01 C 94.80 209.37 94.15 209.74 93.52 210.12 C 91.23 211.10 91.13 214.55 90.20 216.60 C 88.15 221.77 85.52 226.59 83.98 231.98 C 82.17 235.07 80.34 237.96 79.43 241.47 C 78.16 246.35 77.68 251.28 75.74 256.00 L 30.57 256.00 C 30.14 251.69 30.11 247.55 31.57 243.41 C 33.18 238.60 34.27 233.95 33.81 228.83 L 33.81 228.11 C 36.01 223.67 38.57 220.19 42.10 216.73 C 43.93 216.88 46.76 216.34 48.08 217.89 C 50.99 220.88 52.96 224.88 55.27 228.35 C 56.34 226.75 57.39 225.16 58.44 223.55 C 57.38 223.58 56.33 223.63 55.28 223.67 C 57.12 222.23 59.36 220.70 60.58 218.69 C 60.12 214.24 57.19 209.70 57.15 204.95 C 57.14 202.09 58.49 199.06 59.41 196.36 C 57.28 193.37 58.14 190.30 57.49 186.70 C 55.36 188.06 53.32 189.54 51.29 191.03 C 50.34 186.04 51.13 181.28 51.49 176.28 C 50.77 176.74 50.04 177.20 49.32 177.66 C 49.51 176.10 49.69 174.53 49.85 172.96 C 47.31 176.53 44.90 180.34 43.23 184.41 C 42.58 185.83 42.64 187.26 42.81 188.76 C 43.46 193.49 42.09 198.03 43.15 202.76 C 43.75 205.89 43.53 207.02 41.79 209.65 C 43.19 210.63 44.60 211.61 46.01 212.58 C 44.36 212.55 42.71 212.52 41.06 212.52 C 39.03 212.53 37.09 212.57 35.10 213.07 C 33.70 213.41 32.30 213.79 30.90 214.17 C 29.52 212.02 27.72 209.95 26.73 207.59 C 26.42 203.94 27.46 200.09 27.97 196.47 C 27.00 196.07 26.04 195.66 25.08 195.25 C 23.06 197.46 21.02 199.64 18.94 201.78 C 20.74 197.20 23.65 193.90 22.11 188.74 C 22.46 188.16 22.82 187.57 23.16 186.99 C 24.44 184.96 25.75 182.96 26.91 180.86 C 29.06 177.20 31.55 173.80 34.31 170.58 C 32.82 174.79 31.39 179.00 30.35 183.34 C 33.05 181.29 35.60 179.38 37.46 176.47 C 39.81 172.75 41.65 168.70 43.83 164.87 C 48.53 165.74 53.29 166.79 58.06 167.18 C 59.65 167.32 60.94 166.12 62.05 165.14 C 66.54 161.18 68.31 157.09 68.64 151.10 C 68.90 145.19 63.14 138.64 57.07 138.82 C 52.41 138.46 47.71 138.60 43.04 138.47 C 43.63 136.99 44.21 135.42 45.03 134.06 C 46.51 131.82 48.99 130.24 50.48 128.02 C 52.15 125.32 52.70 121.91 54.35 119.23 C 55.88 117.02 57.73 115.24 58.89 112.71 C 60.64 108.87 61.33 104.36 62.20 100.25 C 62.79 101.15 63.39 102.05 63.99 102.96 C 63.89 97.10 64.57 92.28 67.72 87.25 Z" fill="#a28b71" />
<path d="M 147.22 102.16 C 154.11 103.85 160.43 105.69 165.00 111.52 L 165.00 116.60 C 158.55 111.12 151.28 109.70 147.22 102.16 Z" fill="#231920" />
<path d="M 128.47 106.88 C 131.43 108.78 133.95 111.11 136.56 113.45 C 138.70 115.48 142.56 115.31 144.92 116.83 C 147.04 118.37 148.81 120.55 151.04 122.00 C 152.85 123.12 155.17 123.67 157.18 124.38 C 159.70 126.10 161.30 128.50 162.97 130.99 C 162.05 131.25 161.13 131.51 160.21 131.76 C 161.31 135.60 163.11 139.08 165.00 142.57 L 165.00 144.09 C 164.27 143.72 163.52 143.36 162.78 143.02 C 162.82 145.10 162.97 147.16 163.11 149.24 C 161.76 149.11 160.42 148.98 159.07 148.85 C 155.93 144.48 152.35 140.43 149.18 136.07 C 149.85 135.73 150.53 135.38 151.20 135.03 C 148.59 132.20 145.94 129.42 143.17 126.74 C 140.42 123.91 137.65 121.10 134.63 118.55 C 135.36 118.07 136.08 117.60 136.81 117.12 C 135.25 116.40 133.67 115.69 132.14 114.91 C 130.37 112.44 128.99 109.91 128.47 106.88 Z" fill="#231920" />
<path d="M 108.72 112.87 C 111.82 112.83 114.86 113.10 117.75 114.28 C 122.18 115.89 126.19 119.18 130.74 120.26 C 132.96 119.33 132.13 116.80 132.14 114.91 C 133.67 115.69 135.25 116.40 136.81 117.12 C 136.08 117.60 135.36 118.07 134.63 118.55 C 137.65 121.10 140.42 123.91 143.17 126.74 C 140.80 125.88 138.37 125.25 135.91 124.67 C 138.84 128.18 142.02 131.48 145.07 134.88 C 142.40 133.75 139.71 132.68 136.99 131.67 C 136.58 132.40 136.18 133.14 135.78 133.87 C 133.42 133.35 131.04 132.86 128.71 132.25 C 127.82 131.69 126.93 131.15 126.05 130.60 C 125.77 128.56 125.52 126.52 125.27 124.48 C 119.34 122.28 113.32 120.52 107.67 117.60 C 108.01 116.02 108.34 114.44 108.72 112.87 Z" fill="#412e21" />
<path d="M 162.29 116.72 C 163.19 117.30 164.09 117.88 165.00 118.46 L 165.00 121.94 C 164.00 122.62 162.98 123.26 161.95 123.90 C 160.02 123.10 158.10 122.30 156.11 121.63 L 155.83 123.29 C 153.97 121.88 152.87 120.46 151.81 118.41 C 155.37 118.13 158.84 117.68 162.29 116.72 Z" fill="#231920" />
<path d="M 34.60 119.70 C 33.50 121.69 31.80 123.86 31.45 126.14 C 31.39 129.52 32.86 133.11 34.36 136.07 C 32.67 137.68 30.66 139.29 29.45 141.29 C 28.37 144.48 28.54 148.14 28.03 151.46 C 27.80 155.62 25.10 158.27 23.80 161.94 C 23.48 166.40 23.78 170.32 21.46 174.40 C 20.54 176.34 20.58 178.32 20.54 180.41 C 21.95 180.54 23.36 180.68 24.78 180.81 C 24.40 182.34 24.03 183.86 23.63 185.39 C 22.44 185.14 21.24 184.88 20.05 184.63 C 19.36 182.39 18.69 180.15 17.98 177.92 C 19.64 174.60 20.48 172.25 19.75 168.54 C 18.46 168.86 17.17 169.17 15.89 169.49 C 16.92 168.03 17.97 166.58 18.98 165.10 C 21.62 161.43 23.06 157.73 22.98 153.16 C 22.85 148.93 24.54 145.36 25.24 141.29 C 25.69 138.90 26.29 136.54 26.96 134.20 C 24.77 135.04 22.59 135.91 20.42 136.79 C 20.77 134.84 20.74 132.66 22.24 131.18 C 24.65 128.68 27.29 126.49 29.34 123.65 C 30.85 121.62 32.15 120.52 34.60 119.70 Z" fill="#412e21" />
<path d="M 156.11 121.63 C 158.10 122.30 160.02 123.10 161.95 123.90 C 162.98 123.26 164.00 122.62 165.00 121.94 L 165.00 142.57 C 163.11 139.08 161.31 135.60 160.21 131.76 C 161.13 131.51 162.05 131.25 162.97 130.99 C 161.30 128.50 159.70 126.10 157.18 124.38 L 155.83 123.29 L 156.11 121.63 Z" fill="#544636" />
<path d="M 135.91 124.67 C 138.37 125.25 140.80 125.88 143.17 126.74 C 145.94 129.42 148.59 132.20 151.20 135.03 C 150.53 135.38 149.85 135.73 149.18 136.07 C 152.35 140.43 155.93 144.48 159.07 148.85 C 161.18 152.73 162.99 156.77 165.00 160.71 L 165.00 230.98 C 161.82 230.32 158.80 229.65 155.53 229.75 C 152.07 229.82 148.00 230.52 144.68 229.50 C 141.18 228.32 138.33 224.80 135.09 223.07 C 132.20 221.86 128.66 222.32 125.68 221.29 C 122.26 218.01 122.63 213.98 122.78 209.63 C 124.19 212.03 125.46 214.47 126.62 217.00 C 125.56 211.26 123.76 206.37 127.63 201.19 C 129.59 203.13 131.52 205.10 133.49 207.05 C 134.98 204.56 135.03 203.46 134.54 200.64 C 135.98 200.34 137.41 200.04 138.85 199.74 C 138.02 198.97 137.19 198.21 136.36 197.46 C 137.24 197.46 138.13 197.46 139.02 197.46 C 138.62 188.39 134.72 179.36 129.64 171.94 C 129.69 173.28 129.75 174.61 129.80 175.95 C 124.84 169.62 122.03 162.16 117.26 155.72 C 113.95 150.94 113.44 145.79 112.62 140.22 C 114.83 141.11 117.04 142.00 119.26 142.86 C 119.09 139.04 118.32 135.41 117.22 131.76 C 121.26 132.96 124.98 133.83 127.71 137.34 C 129.87 140.27 131.71 143.29 134.53 145.70 C 135.12 146.29 135.70 146.88 136.29 147.47 C 130.09 147.44 128.65 139.15 122.84 139.81 C 122.79 144.06 124.96 147.40 126.57 151.20 C 130.44 159.70 132.45 168.55 135.67 177.26 C 138.66 184.92 138.95 192.10 145.18 198.13 C 145.27 195.45 145.26 192.79 145.16 190.12 C 146.66 189.66 148.16 189.21 149.66 188.76 C 148.90 187.04 148.14 185.33 147.37 183.62 C 148.64 183.59 149.91 183.56 151.18 183.53 C 151.13 180.58 151.05 177.63 150.93 174.69 C 151.81 175.27 152.70 175.85 153.58 176.44 C 153.92 175.93 154.26 175.43 154.60 174.93 C 156.33 175.98 158.06 177.03 159.80 178.07 C 159.69 176.94 159.58 175.81 159.46 174.68 C 160.15 174.74 160.84 174.80 161.53 174.86 C 160.80 173.05 159.84 171.66 160.45 169.67 C 161.19 166.98 160.61 165.43 159.42 163.01 C 158.85 161.67 158.14 160.31 157.85 158.88 C 158.47 158.11 159.19 157.40 159.88 156.69 C 156.64 152.55 154.23 148.49 152.07 143.70 C 150.01 139.03 146.37 137.00 141.76 135.36 C 141.74 137.02 141.73 138.67 141.77 140.33 C 139.62 139.09 137.43 138.24 135.07 137.53 C 132.49 136.83 130.62 134.02 128.71 132.25 C 131.04 132.86 133.42 133.35 135.78 133.87 C 136.18 133.14 136.58 132.40 136.99 131.67 C 139.71 132.68 142.40 133.75 145.07 134.88 C 142.02 131.48 138.84 128.18 135.91 124.67 Z" fill="#544636" />
<path d="M 8.16 128.81 C 12.01 129.02 15.86 129.27 19.70 129.72 C 19.06 132.26 18.10 134.90 18.00 137.52 C 18.54 139.59 20.73 141.30 21.07 143.47 C 21.38 146.64 20.23 149.27 19.19 152.17 C 17.46 156.06 18.76 160.92 18.98 165.10 C 17.97 166.58 16.92 168.03 15.89 169.49 C 17.17 169.17 18.46 168.86 19.75 168.54 C 20.48 172.25 19.64 174.60 17.98 177.92 C 15.78 182.22 17.54 185.75 18.59 190.01 C 13.09 192.57 7.32 194.43 1.82 197.01 C 1.20 195.79 0.58 194.56 0.00 193.31 L 0.00 143.12 C 3.22 142.23 6.90 141.51 9.78 139.77 C 11.01 138.98 11.69 138.31 11.83 136.78 C 12.49 133.42 9.94 131.28 8.16 128.81 Z" fill="#100b0e" />
<path d="M 122.84 139.81 C 128.65 139.15 130.09 147.44 136.29 147.47 C 142.40 153.37 145.21 162.67 149.89 169.09 C 151.32 171.21 153.54 171.33 155.78 172.10 C 156.54 168.65 157.57 166.03 159.42 163.01 C 160.61 165.43 161.19 166.98 160.45 169.67 C 159.84 171.66 160.80 173.05 161.53 174.86 C 160.84 174.80 160.15 174.74 159.46 174.68 C 159.58 175.81 159.69 176.94 159.80 178.07 C 158.06 177.03 156.33 175.98 154.60 174.93 C 154.26 175.43 153.92 175.93 153.58 176.44 C 152.70 175.85 151.81 175.27 150.93 174.69 C 151.05 177.63 151.13 180.58 151.18 183.53 C 149.91 183.56 148.64 183.59 147.37 183.62 C 148.14 185.33 148.90 187.04 149.66 188.76 C 148.16 189.21 146.66 189.66 145.16 190.12 C 145.26 192.79 145.27 195.45 145.18 198.13 C 138.95 192.10 138.66 184.92 135.67 177.26 C 132.45 168.55 130.44 159.70 126.57 151.20 C 124.96 147.40 122.79 144.06 122.84 139.81 Z" fill="#846549" />
<path d="M 132.04 139.52 C 136.03 140.49 139.15 142.04 142.27 144.71 C 147.16 148.46 149.72 153.79 155.20 156.87 C 152.87 152.54 149.76 148.86 146.74 145.00 C 147.24 144.34 147.74 143.67 148.24 143.00 C 149.52 143.24 150.80 143.47 152.07 143.70 C 154.23 148.49 156.64 152.55 159.88 156.69 C 159.19 157.40 158.47 158.11 157.85 158.88 C 158.14 160.31 158.85 161.67 159.42 163.01 C 157.57 166.03 156.54 168.65 155.78 172.10 C 153.54 171.33 151.32 171.21 149.89 169.09 C 145.21 162.67 142.40 153.37 136.29 147.47 C 135.70 146.88 135.12 146.29 134.53 145.70 C 133.59 143.68 132.78 141.61 132.04 139.52 Z" fill="#a28b71" />
<path d="M 58.09 142.12 C 61.76 142.98 64.56 145.20 67.14 147.84 C 63.17 146.87 59.30 145.41 55.29 144.61 C 52.06 143.88 49.36 145.14 46.71 142.69 C 50.63 142.06 54.11 141.14 58.09 142.12 Z" fill="#412e21" />
<path d="M 46.71 142.69 C 49.36 145.14 52.06 143.88 55.29 144.61 C 59.30 145.41 63.17 146.87 67.14 147.84 C 67.67 148.90 68.17 149.99 68.64 151.10 C 68.31 157.09 66.54 161.18 62.05 165.14 C 63.15 162.82 64.41 160.39 64.92 157.85 C 65.00 156.23 64.10 154.50 63.62 152.95 C 62.61 153.88 61.86 156.42 60.20 155.64 C 56.00 154.42 51.97 152.45 47.98 150.64 C 48.22 151.81 48.45 152.98 48.68 154.15 C 46.68 153.17 44.69 152.19 42.71 151.20 C 43.70 150.59 44.69 149.98 45.68 149.37 C 43.80 148.50 41.93 147.62 40.01 146.83 C 40.77 145.50 41.64 143.63 43.06 142.92 C 44.28 142.68 45.47 142.69 46.71 142.69 Z" fill="#412e21" />
<path d="M 162.78 143.02 C 163.52 143.36 164.27 143.72 165.00 144.09 L 165.00 160.71 C 162.99 156.77 161.18 152.73 159.07 148.85 C 160.42 148.98 161.76 149.11 163.11 149.24 C 162.97 147.16 162.82 145.10 162.78 143.02 Z" fill="#544636" />
<path d="M 127.05 143.77 C 131.17 146.35 134.52 150.57 137.83 154.14 C 142.29 159.46 146.50 165.27 148.51 172.00 C 147.28 170.81 146.06 169.61 144.85 168.40 C 146.05 171.56 147.16 174.75 148.19 177.97 C 144.98 175.93 141.47 174.08 138.63 171.55 C 135.94 168.85 134.55 164.61 133.10 161.13 C 131.01 155.47 128.16 149.67 127.05 143.77 Z" fill="#a28b71" />
<path d="M 40.01 146.83 C 41.93 147.62 43.80 148.50 45.68 149.37 C 44.69 149.98 43.70 150.59 42.71 151.20 C 44.69 152.19 46.68 153.17 48.68 154.15 C 48.45 152.98 48.22 151.81 47.98 150.64 C 51.97 152.45 56.00 154.42 60.20 155.64 C 61.86 156.42 62.61 153.88 63.62 152.95 C 64.10 154.50 65.00 156.23 64.92 157.85 C 64.41 160.39 63.15 162.82 62.05 165.14 C 60.94 166.12 59.65 167.32 58.06 167.18 C 53.29 166.79 48.53 165.74 43.83 164.87 C 41.60 161.93 38.74 158.52 37.90 154.88 C 37.70 152.18 38.95 149.27 40.01 146.83 Z" fill="#100b0e" />
<path d="M 74.21 167.47 C 78.60 174.95 78.82 185.13 77.88 193.57 C 77.46 197.09 78.30 200.34 79.21 203.70 C 79.99 202.58 80.76 201.46 81.54 200.34 C 82.89 203.35 83.37 205.90 83.43 209.20 C 81.99 209.16 80.54 209.11 79.10 209.07 C 78.98 207.77 78.87 206.47 78.76 205.17 C 78.05 206.57 77.34 207.97 76.63 209.36 C 75.43 207.89 74.00 206.37 73.22 204.63 C 71.06 197.73 75.01 190.87 72.39 184.49 C 69.95 178.75 72.23 172.99 74.21 167.47 Z" fill="#846549" />
<path d="M 49.85 172.96 C 49.69 174.53 49.51 176.10 49.32 177.66 C 50.04 177.20 50.77 176.74 51.49 176.28 C 51.13 181.28 50.34 186.04 51.29 191.03 C 53.32 189.54 55.36 188.06 57.49 186.70 C 58.14 190.30 57.28 193.37 59.41 196.36 C 58.49 199.06 57.14 202.09 57.15 204.95 C 57.19 209.70 60.12 214.24 60.58 218.69 C 59.36 220.70 57.12 222.23 55.28 223.67 C 56.33 223.63 57.38 223.58 58.44 223.55 C 57.39 225.16 56.34 226.75 55.27 228.35 C 52.96 224.88 50.99 220.88 48.08 217.89 C 46.76 216.34 43.93 216.88 42.10 216.73 C 41.64 216.39 41.18 216.05 40.72 215.72 C 40.84 214.65 40.95 213.58 41.06 212.52 C 42.71 212.52 44.36 212.55 46.01 212.58 C 44.60 211.61 43.19 210.63 41.79 209.65 C 43.53 207.02 43.75 205.89 43.15 202.76 C 42.09 198.03 43.46 193.49 42.81 188.76 C 42.64 187.26 42.58 185.83 43.23 184.41 C 44.90 180.34 47.31 176.53 49.85 172.96 Z" fill="#846549" />
<path d="M 21.46 174.40 C 23.46 175.47 25.45 176.54 27.50 177.49 C 27.32 178.62 27.13 179.74 26.91 180.86 C 25.75 182.96 24.44 184.96 23.16 186.99 L 23.63 185.39 C 24.03 183.86 24.40 182.34 24.78 180.81 C 23.36 180.68 21.95 180.54 20.54 180.41 C 20.58 178.32 20.54 176.34 21.46 174.40 Z" fill="#544636" />
<path d="M 17.98 177.92 C 18.69 180.15 19.36 182.39 20.05 184.63 C 21.24 184.88 22.44 185.14 23.63 185.39 L 23.16 186.99 C 22.82 187.57 22.46 188.16 22.11 188.74 C 20.36 191.32 19.31 194.05 18.56 197.07 C 17.05 203.13 13.57 207.40 11.07 213.12 C 12.32 211.74 13.54 210.33 14.72 208.88 C 15.24 209.43 15.75 209.99 16.27 210.54 C 17.15 209.84 18.03 209.14 18.91 208.45 C 18.64 210.95 18.36 213.45 18.09 215.95 C 19.65 215.19 21.21 214.42 22.76 213.64 C 22.52 215.90 22.07 218.37 22.45 220.63 C 23.58 222.34 25.36 223.68 26.47 225.43 C 29.16 230.75 29.56 236.03 27.04 241.51 C 24.81 241.01 22.59 240.52 20.36 240.05 C 21.55 239.01 22.75 237.97 23.94 236.93 C 17.74 238.39 12.24 240.98 6.73 244.11 C 4.49 245.16 2.20 246.10 0.00 247.23 L 0.00 242.51 C 5.51 239.77 11.16 237.29 16.77 234.76 C 18.29 234.03 19.98 233.22 21.20 232.04 C 21.94 229.92 21.87 227.45 22.02 225.22 C 20.56 225.66 19.10 226.10 17.64 226.54 C 17.69 225.06 17.74 223.58 17.74 222.09 C 15.80 222.49 13.70 222.90 11.94 223.83 C 9.63 225.18 7.63 227.31 5.27 228.58 C 3.15 226.88 1.47 224.55 0.00 222.29 L 0.00 193.31 C 0.58 194.56 1.20 195.79 1.82 197.01 C 7.32 194.43 13.09 192.57 18.59 190.01 C 17.54 185.75 15.78 182.22 17.98 177.92 Z" fill="#231920" />
<path d="M 101.17 178.43 C 102.75 180.26 104.23 182.18 105.73 184.07 C 105.95 182.06 106.18 180.04 106.41 178.03 C 109.09 183.92 110.32 190.09 111.66 196.37 C 113.40 204.92 117.46 211.72 116.72 220.70 C 115.72 220.98 114.72 221.26 113.72 221.55 C 112.48 219.20 111.29 216.82 110.22 214.39 C 108.86 215.83 107.48 217.24 106.09 218.64 C 105.49 218.10 104.88 217.55 104.28 217.01 C 105.12 212.30 105.86 207.63 103.93 203.04 C 103.59 202.13 102.40 201.95 101.61 201.54 C 100.05 196.25 100.80 191.14 99.95 185.66 C 99.02 188.40 98.23 191.17 97.49 193.97 C 96.80 192.30 96.11 190.63 95.43 188.96 C 95.40 186.44 95.62 183.90 95.73 181.38 C 96.58 182.24 97.40 183.19 98.37 183.91 C 99.47 184.00 100.60 183.83 101.70 183.73 C 101.51 181.97 101.31 180.20 101.17 178.43 Z" fill="#544636" />
<path d="M 91.03 181.87 C 91.73 182.81 92.41 183.77 93.06 184.75 C 91.96 185.86 90.90 187.00 89.82 188.14 C 90.47 190.10 91.04 192.22 92.06 194.03 C 93.63 196.61 96.25 198.66 97.71 201.30 C 98.59 203.02 99.15 204.95 99.75 206.78 C 100.44 205.36 101.14 203.95 101.83 202.53 C 102.11 204.20 102.64 206.32 101.96 207.94 C 101.11 209.91 99.25 211.55 97.77 213.07 C 97.16 210.13 96.82 206.95 95.68 204.16 C 93.74 200.11 89.59 196.35 88.73 191.70 C 88.26 188.49 89.87 184.82 91.03 181.87 Z" fill="#544636" />
<path d="M 93.06 184.75 C 93.94 186.10 94.71 187.51 95.43 188.96 C 96.11 190.63 96.80 192.30 97.49 193.97 C 98.23 191.17 99.02 188.40 99.95 185.66 C 100.80 191.14 100.05 196.25 101.61 201.54 L 101.83 202.53 C 101.14 203.95 100.44 205.36 99.75 206.78 C 99.15 204.95 98.59 203.02 97.71 201.30 C 96.25 198.66 93.63 196.61 92.06 194.03 C 91.04 192.22 90.47 190.10 89.82 188.14 C 90.90 187.00 91.96 185.86 93.06 184.75 Z" fill="#412e21" />
<path d="M 22.11 188.74 C 23.65 193.90 20.74 197.20 18.94 201.78 C 21.02 199.64 23.06 197.46 25.08 195.25 C 26.04 195.66 27.00 196.07 27.97 196.47 C 27.46 200.09 26.42 203.94 26.73 207.59 C 27.72 209.95 29.52 212.02 30.90 214.17 C 32.30 213.79 33.70 213.41 35.10 213.07 C 33.61 214.47 32.25 215.98 30.81 217.43 C 29.30 218.56 27.26 219.79 25.83 217.84 C 23.64 213.24 22.88 207.73 22.33 202.69 C 19.20 204.29 16.81 206.02 14.72 208.88 C 13.54 210.33 12.32 211.74 11.07 213.12 C 13.57 207.40 17.05 203.13 18.56 197.07 C 19.31 194.05 20.36 191.32 22.11 188.74 Z" fill="#846549" />
<path d="M 22.33 202.69 C 22.88 207.73 23.64 213.24 25.83 217.84 C 27.26 219.79 29.30 218.56 30.81 217.43 C 32.29 217.84 33.78 218.25 35.27 218.65 C 34.12 221.88 33.63 224.67 33.81 228.11 L 33.81 228.83 C 30.21 232.15 29.46 236.66 28.93 241.31 C 28.82 246.20 29.45 251.10 29.40 256.00 L 13.44 256.00 C 12.65 253.79 11.50 251.32 13.11 249.18 C 15.30 246.49 18.32 244.42 20.91 242.13 C 16.08 243.39 11.81 245.09 6.73 244.11 C 12.24 240.98 17.74 238.39 23.94 236.93 C 22.75 237.97 21.55 239.01 20.36 240.05 C 22.59 240.52 24.81 241.01 27.04 241.51 C 29.56 236.03 29.16 230.75 26.47 225.43 C 25.36 223.68 23.58 222.34 22.45 220.63 C 22.07 218.37 22.52 215.90 22.76 213.64 C 21.21 214.42 19.65 215.19 18.09 215.95 C 18.36 213.45 18.64 210.95 18.91 208.45 C 18.03 209.14 17.15 209.84 16.27 210.54 C 15.75 209.99 15.24 209.43 14.72 208.88 C 16.81 206.02 19.20 204.29 22.33 202.69 Z" fill="#412e21" />
<path d="M 41.06 212.52 C 40.95 213.58 40.84 214.65 40.72 215.72 C 41.18 216.05 41.64 216.39 42.10 216.73 C 38.57 220.19 36.01 223.67 33.81 228.11 C 33.63 224.67 34.12 221.88 35.27 218.65 C 33.78 218.25 32.29 217.84 30.81 217.43 C 32.25 215.98 33.61 214.47 35.10 213.07 C 37.09 212.57 39.03 212.53 41.06 212.52 Z" fill="#544636" />
<path d="M 90.85 220.50 C 92.35 225.16 92.77 229.46 97.20 232.39 C 98.20 230.56 99.18 228.73 100.16 226.90 C 100.19 227.78 100.22 228.66 100.25 229.55 C 103.40 228.61 106.49 228.15 109.78 227.99 C 113.20 227.82 116.61 227.10 120.04 227.11 C 122.64 226.95 125.24 229.40 125.30 231.97 C 124.24 235.75 120.98 238.94 119.89 242.71 C 119.40 245.18 120.16 248.03 120.04 250.54 C 117.76 253.01 114.16 254.47 111.22 256.00 L 75.74 256.00 C 77.68 251.28 78.16 246.35 79.43 241.47 C 80.34 237.96 82.17 235.07 83.98 231.98 C 86.40 228.23 88.52 224.31 90.85 220.50 Z" fill="#544636" />
<path d="M 17.74 222.09 C 17.74 223.58 17.69 225.06 17.64 226.54 C 19.10 226.10 20.56 225.66 22.02 225.22 C 21.87 227.45 21.94 229.92 21.20 232.04 C 19.98 233.22 18.29 234.03 16.77 234.76 C 11.16 237.29 5.51 239.77 0.00 242.51 L 0.00 222.29 C 1.47 224.55 3.15 226.88 5.27 228.58 C 7.63 227.31 9.63 225.18 11.94 223.83 C 13.70 222.90 15.80 222.49 17.74 222.09 Z" fill="#100b0e" />
<path d="M 33.81 228.83 C 34.27 233.95 33.18 238.60 31.57 243.41 C 30.11 247.55 30.14 251.69 30.57 256.00 L 29.40 256.00 C 29.45 251.10 28.82 246.20 28.93 241.31 C 29.46 236.66 30.21 232.15 33.81 228.83 Z" fill="#846549" />
<path d="M 165.00 239.91 L 165.00 256.00 L 126.66 256.00 C 127.92 252.64 128.40 247.63 131.16 245.18 C 134.47 242.73 140.30 244.21 144.20 244.25 C 151.37 244.64 158.61 243.24 165.00 239.91 Z" fill="#544636" />
<path d="M 20.91 242.13 C 18.32 244.42 15.30 246.49 13.11 249.18 C 11.50 251.32 12.65 253.79 13.44 256.00 L 0.00 256.00 L 0.00 247.23 C 2.20 246.10 4.49 245.16 6.73 244.11 C 11.81 245.09 16.08 243.39 20.91 242.13 Z" fill="#544636" />
</svg>